<svg width="2500" height="1002" viewBox="0 0 2500 1002" fill="none" xmlns="http://www.w3.org/2000/svg">
<path d="M859.304 1001.92C980.94 998.39 1091.16 946.302 1173.63 864.038C1248.54 948.521 1357.75 1001.92 1478.99 1001.92C1600.82 1001.92 1710.44 948.016 1785.34 862.727C1860.34 948.025 1969.96 1001.92 2091.79 1001.92C2316.39 1001.92 2500 818.402 2500 593.714V0.183561H2233.52V593.714C2233.52 680.726 2163.97 751.989 2076.95 751.989C1989.85 751.989 1918.58 680.726 1918.58 593.714V0.183561H1652.1V593.714C1652.1 680.726 1580.83 751.989 1493.72 751.989C1406.71 751.989 1337.16 680.726 1337.16 593.714V0.183561H1070.68V504.389C1068.76 628.948 977.813 732.307 866.167 735.641L476.435 735.538C360.556 735.538 266.382 630.764 266.382 501.861C266.382 372.051 360.556 266.472 476.435 266.472H866.878V0.0805664H476.435C213.686 0.0805664 0 224.881 0 501.852C0 777.222 213.686 1001.91 476.435 1001.91L859.304 1001.92Z" fill="#FF4400"/>
</svg>
