<svg fill="none" height="1002" viewBox="0 0 2500 1002" width="2500" xmlns="http://www.w3.org/2000/svg"><path d="m859.304 1001.92c121.636-3.53 231.856-55.618 314.326-137.882 74.91 84.483 184.12 137.882 305.36 137.882 121.83 0 231.45-53.904 306.35-139.193 75 85.298 184.62 139.193 306.45 139.193 224.6 0 408.21-183.518 408.21-408.206v-593.530439h-266.48v593.530439c0 87.012-69.55 158.275-156.57 158.275-87.1 0-158.37-71.263-158.37-158.275v-593.530439h-266.48v593.530439c0 87.012-71.27 158.275-158.38 158.275-87.01 0-156.56-71.263-156.56-158.275v-593.530439h-266.48v504.205439c-1.92 124.559-92.867 227.918-204.513 231.252l-389.732-.103c-115.879 0-210.053-104.774-210.053-233.677 0-129.81 94.174-235.389 210.053-235.389h390.443v-266.3914336h-390.443c-262.749 0-476.435 224.8004336-476.435 501.7714336 0 275.37 213.686 500.058 476.435 500.058z" fill="#f40"/></svg>