<svg fill="none" height="1030" viewBox="0 0 2500 1030" width="2500" xmlns="http://www.w3.org/2000/svg"><path clip-rule="evenodd" d="m1989.71 714.379c108.93 0 201.16-89.889 201.16-202.222 0-112.343-92.23-201.089-201.16-201.089-112.26 0-202.22 88.746-202.22 201.087 0 112.335 89.96 202.221 202.22 202.221m-256.15-202.221c0-141.538 114.61-256.078 256.15-256.078 141.62 0 256.08 114.537 256.08 256.078 0 142.604-114.46 257.291-256.08 257.291-141.54 0-256.15-114.687-256.15-257.291zm-359.31 0c32.46-2.305 85.33-39.29 105.51-61.744-7.89 26.925-7.89 112.263 0 139.266-22.45-32.542-73.05-71.906-105.51-77.522zm-184.25-270.641c40.43 0 72.97 39.292 72.97 84.27 0 44.831-32.54 84.275-72.97 84.275h-139.42v-168.548zm0 378.425c40.43 0 72.97 39.372 72.97 84.277 0 47.25-32.54 86.47-72.97 86.47h-139.42v-170.747zm799.71 410.061c280.81 0 509.96-233.628 509.96-517.845 0-288.694-229.15-512.155-509.96-512.155-284.14 0-427.96 206.62-462.7 290.891 0-124.702-124.78-274.053-269.65-274.053h-468.391v1008.692h435.771c177.49 0 302.27-151.706 302.27-284.226 39.29 82.003 178.56 288.696 462.7 288.696m-1256.796-4.49h-274.132v-390.948h-177.571v390.948h-280.880434v-1008.6894h280.880434v376.2284h177.571v-376.2259h274.132z" fill="#fff" fill-rule="evenodd"/></svg>