<svg fill="none" height="648" viewBox="0 0 2487 648" width="2487" xmlns="http://www.w3.org/2000/svg"><g fill="#fff"><path d="m1828.9 318.031c46.07 4.2 83.03-58.415 83.03-58.415s-7.15 23.12-9.08 28.287c-13.23 35.616-76.2 48.395-76.2 48.395s-10.58 29.372-18.73 44.707c-37.45 70.289-113.19 123.709-162 107.718-48.86-15.992-62.59-88.168 9.11-176.627 52.61-64.886 113.65-74.104 141.46-61.151 40.56 18.928 33.09 58.115 32.41 67.086zm-160.65 155.163c38.52 19.333 139.31-193.743 105.89-209.006-46.06-21.031-140.17 191.784-105.89 209.006z"/><path d="m2479.68 165.171h-50.24l-40.1 90.314h-34.74l-3.65 7.791h34.24s-53.04 103.612-77.55 151.485c-18.31 35.613-11.02 94.924 35.99 95.889 83.56.398 118.69-79.415 120.98-83.071 2.28-3.667-5.94-6.85-7.8-1.397-23.23 43.367-67.97 72.567-90.78 71.209-6.36-.355-28.77-8.666-20.08-38.781 6.9-23.941 88.99-195.334 88.99-195.334h49.25l2.76-7.791h-47.93c0 .003 40.66-89.436 40.66-90.314zm-1514.628 93.997-105.416 219.957h60.204s34.596-81.502 54.79-116.827c17.208-30.113 40.15-50.2 40.15-50.2s2.7 36.815 22.84 35.136c52.04-4.292 75.72-36.491 75.72-36.491s-26.2 16.459-36.04 11.849c-10.87-5.041-6.82-25.09.9-36.956 7.76-11.867 14.43-19.14 15.08-26.465.92-10.029-9.59-10.454-13.2-10.937-10.55-1.357-57.68 39.851-73.93 54.308-2.82 2.482-5.96-.465-5.06-4.093.92-3.665 17.82-39.278 17.82-39.278zm-470.034-258.292681c164.761.554521 260.275 105.430681 259.223 183.470681 0 111.796-135.565 169.764-248.717 169.764-71.229 284.738-301.192 295.89-343.618 292.953-168.85168-13.646-160.66822-112.266-161.580805-122.294 7.325585-70.299 52.037505-65.726 60.238405-63.901 24.6797 6.418 26.4999 31.04 26.4999 42.906 0 11.852-22.6904 33.112-25.5873 49.28-9.1135 51.133 48.7128 80.868 106.7928 83.508 59.808 2.753 143.762-38.291 200.785-166.546 4.575-13.689 70.299-167.941 83.99-194.869 6.846-13.475 72.105-139.193 155.128-152.88-49.247 49.305-69.352 137.834-97.64 216.781 29.218 2.271 60.06-.766 107.683-43.406 27.985-25.073 52.289-64.458 58.914-126.378 1.792-16.866-5.856-147.4066-181.661-155.1425-237.745-10.49349-361.85 169.2245-361.887 287.9535 0 10.933 4.578 98.122 92.656 97.637 46.515 0 83.275-32.64 80.771-52.911-2.112-16.958-11.417-39.238 5.898-50.657 10.864-7.129 42.459-10.026 49.302 17.349 5.936 26.468-18.262 96.73-136.883 96.73-67.997 0-157.4732-51.088-153.8079-153.34 3.7175-103.792 146.1589-256.88297158 423.5009-256.007681z"/><path d="m819.483 426.199c-1.843 11.879-2.858 19.602 9.113 21.445 25.359 3.874 74.392-55.24 74.392-55.24s8.025 7.922 0 17.354c-20.084 23.749-74.213 65.726-101.305 73.484-12.366 3.521-32.455 2.967-36.043-19.607-2.377-14.832 1.785-31.948 1.785-31.948s-71.174 74.838-116.816 48.37c-4.536-2.748-44.837-29.931 19.174-120.474 61.633-87.171 135.098-102.255 160.636-104.491 26.052-2.339 60.347-2.998 61.151 12.297.93 17.354-70.265 146.942-72.087 158.81zm-89.457-70.284c-31.577 54.435-41.051 87.653-23.267 94.459 38.794 14.903 109.165-120.335 131.413-178.877-45.155-4.108-86.649 47.464-108.146 84.418zm480.454 71.07c-1.83 11.901-2.85 19.619 9.15 21.445 25.33 3.874 71.19-52.485 71.19-52.485s8.01 7.885 0 17.351c-20.1 23.715-71.03 62.994-98.12 70.712-12.37 3.561-32.47 3.002-36.05-19.584-2.37-14.816 1.83-31.953 1.83-31.953s-71.22 74.857-116.82 48.394c-4.58-2.75-44.837-29.969 19.14-120.477 61.63-87.188 135.08-102.22 160.67-104.525 26.01-2.302 60.34-2.964 61.15 12.329.87 17.352-70.3 146.924-72.14 158.793zm-89.44-70.267c-31.58 54.417-41.07 87.614-23.26 94.459 38.77 14.853 109.16-120.372 131.44-178.895-45.19-4.093-86.7 47.482-108.18 84.436z"/><path d="m1347 259.168-99.46 219.957h54.75l69.82-153.786s38.8-41.727 58.86-41.526c15.55.139 6.89 30.593-.93 41.526-7.75 10.934-73.48 153.786-73.48 153.786h55.22s63.94-130.941 69.39-142.852c5.5-11.846 44.55-57.697 66.17-57.448 16.3.146 3.22 31.005-3.18 42.854-6.39 11.901-39.24 79.858-54.34 109.973-18.23 45.64 11.7 53.948 20.1 54.326 43.82 1.822 97.21-57.936 97.21-57.936l1.36-19.662s-46.1 59.798-62.11 48.382c-6.08-4.381-7.22-8.225-4.97-16.874 1.21-4.503 59.15-125.554 67.51-141.921 9.15-17.817 13.8-43.889-14.58-43.802-49.25.07-94.91 39.264-94.91 39.264s3.21-38.351-22.84-38.351c-44.71 0-92.13 40.584-92.13 40.584l15.9-36.491z"/><path d="m1962.6 259.168s-75.3 156.06-78.91 173.877c-3.68 17.797 10.01 17.349 8.65 17.349 61.61 0 135.06-191.223 135.06-191.223h49.28s-70.91 164.064-72.98 169.778c-2.79 7.279-1.89 16.728 7.64 18.998 41.11-4.105 112.88-118.945 112.88-118.945s-25.66 53.54-28.35 59.798c-10.96 25.073-76.2 76.643-76.2 76.643s-49.14 41.425-67.08 6.396c-6.29-12.225-4.14-39.262-4.14-39.262s-63.41 54.86-97.14 53.861c-15.58-.463-27.45-9.579-26.95-31.503.46-23.817 87.6-195.767 87.6-195.767z"/><path d="m2200.35 259.168-19.59 44.727s.57 1.823 2.5.219c12.01-10.133 52.89-52.809 95.6-52.699 44.36.104 21.45 55.233 21.45 55.233l-60.22 126.397s-5.94 16.693 3.64 17.797c15.94 1.82 74.85-52.02 74.85-52.02l.42 10.951s-82.13 79.857-118.16 76.662c-36.09-3.213-18.72-45.194-18.72-45.194l67.04-144.192s6.01-14.601-8.18-14.601c-31.48 0-55.21 40.139-69.37 57.488-13.94 17.063-70.69 139.186-70.69 139.186l-50.72-.443 99.53-219.513z"/></g></svg>