<svg fill="none" height="289" viewBox="0 0 2329 289" width="2329" xmlns="http://www.w3.org/2000/svg"><path d="m2188.85 119.911-11-24.6969c22.63-13.481 48.55-20.4015 74.88-19.9871 51.32 0 76.02 28.189 76.02 80.728v126.977h-25.14l-2.7-22.776c-19.73 16.806-44.61 26.353-70.52 27.053-39.18 0-63.88-23.91-63.88-59.167 0-38.75 24.7-63.098 75.23-63.098h57.94v-6.635c0-36.477-16.05-56.027-51.66-56.027-20.93.554-41.35 6.636-59.17 17.629zm110.83 69.816h-56.81c-31.33 0-46.95 12.917-46.95 34.911s16.84 35.607 41.54 35.607c23.06-.689 45.12-9.569 62.22-25.049zm-676.79 93.208-36.91-218.18-77.59 218.18h-22.34l-77.23-218.7039-37.27 218.7039h-30.98l48.7-274.20912h30.19l77.94 228.04212 77.58-228.04212h30.2l48.7 274.29512zm219.14-14.488c-21.84 12.412-46.61 18.769-71.74 18.415-61.09 0-99.92-43.112-99.92-105.86 0-59.17 38.83-105.775 92.86-105.775 54.02 0 86.22 41.893 86.22 94.429 0 7.418 0 14.924-.79 22.341h-148.36c4.63 41.541 31.33 68.597 72.44 68.597 20.61-.375 40.85-5.481 59.17-14.924zm-22.34-101.934v-1.569c0-36.044-21.12-63.446-56.03-63.446-34.9 0-58.03 27.837-63.09 65.015zm239.39-166.51299986v282.49699986h-25.05l-2.79-20.683c-18.52 16.286-42.37 25.201-67.03 25.048-54.89 0-85.44-47.825-85.44-105.425 0-59.17 34.91-106.21 90.5-106.21 22.03-.031 43.48 7.1071 61.09 20.3363v-95.56329986zm-88.93 260.15599986c22.04-.7 43.12-9.169 59.52-23.91v-112.41c-15.32-13.773-35.01-21.687-55.6-22.341-41.19 0-65.88 33.686-65.88 79.94 0 43.461 21.55 78.719 61.96 78.719zm161.62-184.1421v206.9211h-29.41v-206.9211zm-1941.528 34.4731c-3.141 18.066-7.853 38.049-10.558 49.743l-29.759 122.705h-69.8182l-79.503773-274.20912h64.233473l37.2645 137.01812c2.705 12.13 7.853 32.901 11.78 50.181l45.385-187.19679h61.526l45.904 187.28279c4.277-17.454 9.338-38.049 12.129-50.181l36.394-137.10412h64.32l-78.545 274.29512h-69.819l-30.37-122.791c-2.706-11.869-7.422-31.679-10.563-49.743zm560.198-34.4731h50.879l3.928 21.5563c8.9-8.4408 19.246-15.2103 30.545-19.9848 11.111-4.3642 22.972-6.5 34.908-6.286 9.464-.5461 18.924 1.1175 27.634 4.8593 8.709 3.7418 16.429 9.459 22.547 16.6993 11.78 14.486 17.454 34.908 17.454 61.09v128.987h-58.383v-125.413c.741-9.536-2.055-19.011-7.855-26.617-3.244-3.227-7.17-5.685-11.489-7.195s-8.921-2.033-13.469-1.531c-14.198.416-27.796 5.823-38.403 15.272v145.481h-58.296zm386.44 150.8921 17.98 39.622c-24.33 14.756-52.38 22.208-80.82 21.468-61.09 0-104.722-45.469-104.722-108.566 0-60.392 40.412-107.7791 99.922-107.7791 57.25 0 92.86 40.4051 92.86 101.4951 0 7.856 0 18.416-.78 24.262h-134.4c5.15 28.624 24.35 42.326 56.46 42.326 18.58-.126 36.88-4.515 53.5-12.828zm-110.14-67.81h81.51v-1.921c.09-10.746-3.65-21.173-10.56-29.409-3.52-3.844-7.83-6.885-12.63-8.918-4.81-2.032-9.99-3.008-15.21-2.862-5.32-.109-10.61.881-15.54 2.908-4.92 2.027-9.37 5.047-13.08 8.872-7.93 8.849-12.98 19.896-14.49 31.679zm-309.637-83.3452c-2.516-.3423-5.052-.5173-7.592-.5238-11.899.0401-23.67 2.4537-34.624 7.0993-10.954 4.6457-20.872 11.4301-29.172 19.9557l-3.927-26.182h-50.968v206.832h58.385v-141.462c14.497-8.912 31.158-13.681 48.174-13.79 6.608-.041 13.206.485 19.724 1.572zm602.177 53.4982h.78l9.51-50.7068-2.96-.9568c-4.86-1.1744-9.84-1.8184-14.84-1.9207-11.91.0329-23.7 2.4425-34.67 7.0879-10.97 4.6453-20.9 11.4328-29.21 19.9654l-3.93-26.1803h-50.97v206.3973h58.39v-141.468c14.52-8.927 31.22-13.697 48.26-13.789 6.69-.038 13.38.488 19.98 1.571zm797.22-129.24899986c-3.72-.00046047-7.37 1.10473986-10.47 3.17582986s-5.52 5.01505-6.94 8.45957c-1.43 3.4445-1.81 7.2349-1.08 10.8918s2.52 7.016 5.16 9.6526 6 4.4322 9.65 5.1598c3.66.7275 7.45.3543 10.89-1.0724 3.45-1.4267 6.39-3.8429 8.47-6.9429 2.07-3.1001 3.17-6.7449 3.17-10.4733 0-4.9996-1.98-9.79443-5.52-13.32968-3.53-3.53524-8.33-5.52131986-13.33-5.52131986zm-1648.383 71.30169986c-27.364.038-54.417 5.8052-79.417 16.9303l11.17 45.643c18.341-8.384 38.222-12.871 58.385-13.177 25.484 0 38.834 10.209 38.834 36.827v1.92h-39.62c-57.599 0-83.867 23.128-83.867 65.104 0 37.614 27.053 63.447 67.809 63.447 23.177.1 45.498-8.747 62.313-24.697l3.578 19.636h47.737v-128.989c0-52.886-31.33-82.6443-86.922-82.6443zm28.974 159.4453c-10.955 7.836-23.837 12.542-37.264 13.613-17.456 0-27.84-9.774-27.84-23.91 0-14.139 10.211-23.477 29.409-23.477h35.695z" fill="#000"/></svg>